<?xml version="1.0" encoding="utf-8"?>
<!-- Generator: Adobe Illustrator 18.0.0, SVG Export Plug-In . SVG Version: 6.00 Build 0)  -->
<!DOCTYPE svg PUBLIC "-//W3C//DTD SVG 1.1//EN" "http://www.w3.org/Graphics/SVG/1.1/DTD/svg11.dtd">
<svg version="1.1" id="Capa_1" xmlns="http://www.w3.org/2000/svg" xmlns:xlink="http://www.w3.org/1999/xlink" x="0px" y="0px"
	 viewBox="0 0 330 315.5" enable-background="new 0 0 330 315.5" xml:space="preserve">
<g>
	<path d="M1160.9,179H780.4c-8.5,0-15.5-7.9-15.5-17.6v23c0,9.7,6.9,17.6,15.5,17.6h380.5c8.1,0,14.6-6.6,14.6-14.6v-23
		C1175.5,172.4,1169,179,1160.9,179z"/>
	<path d="M1160.9,38.9h-112.4V-83.3c0-8.1-6.6-14.6-14.6-14.6H912.2c-8.1,0-14.6,6.6-14.6,14.6v78.2H780.4
		c-8.5,0-15.5,7.9-15.5,17.6v129c0,9.7,6.9,17.6,15.5,17.6h380.5c8.1,0,14.6-6.6,14.6-14.6V53.5C1175.5,45.4,1169,38.9,1160.9,38.9z
		"/>
	<g>
		<path fill-rule="evenodd" clip-rule="evenodd" fill="#FDED00" d="M1013.9-63.2c0,4.3,0,8.6,0,12.8c-0.1,0.2-0.1,0.4-0.2,0.6
			c-1.1,9.9-9.8,17.6-19.8,17.5c-0.6,0-0.8,0.2-1,0.7c-1.9,5.9-5.7,10.2-11.4,12.7c-0.9,0.4-1.8,0.7-2.7,1c0,5.2,0,10.4,0,15.7
			c0.3,0,0.6,0,0.8,0c3,0,6,0,9.1,0c2.5,0,4.5,1.5,4.9,3.9c0.2,1.3,0.1,2.6,0.1,4c0,0.7,0,1.4,0,2.1c-13.4,0-26.7,0-40,0
			c0-1.7,0-3.3,0-4.9c0-2.9,2.2-5.1,5.1-5.1c3,0,6,0,9.1,0c0.3,0,0.5,0,0.8,0c0-5.3,0-10.5,0-15.6c-1.3-0.5-2.6-1-3.8-1.6
			c-5.1-2.6-8.6-6.7-10.3-12.2c-0.2-0.5-0.3-0.7-0.9-0.7c-0.8,0-1.6,0-2.3-0.1c-8.2-1.2-13.7-5.7-16.6-13.4
			c-0.5-1.5-0.7-3.1-1.1-4.6c0-4.3,0-8.6,0-12.8c0-0.1,0.1-0.1,0.1-0.2c0.8-2.6,2.5-3.9,5.2-3.9c4.6,0,9.2,0,13.7,0
			c0.3,0,0.6,0,0.9,0c0.2-2.1,1-3.5,2.5-4.3c0.5-0.3,1.1-0.5,1.6-0.7c10.6,0,21.3,0,31.9,0c2.4,0.8,3.9,2.3,4.1,5c0.3,0,0.5,0,0.8,0
			c4.7,0,9.5,0,14.2,0c2.2,0,4,1.4,4.7,3.4C1013.7-63.6,1013.8-63.4,1013.9-63.2z M953.8-42.3c0-5,0-10,0-15c-1.7,0-3.3,0-5,0
			c-1.7,0-3.3,0-5,0c0,1.7,0,3.3,0,5c0,1.5,0.3,2.9,0.9,4.2C946.3-44.6,950.2-42.1,953.8-42.3z M993.9-57.2c0,5,0,10,0,15
			c4.2,0.1,8.3-2.9,9.5-7c0.8-2.6,0.3-5.3,0.5-7.9C1000.5-57.2,997.3-57.2,993.9-57.2z"/>
	</g>
	<g>
		<path fill="#FDED00" d="M1094.9,117.6c3,1.6,10,4.5,17,4.5c8.9,0,13.4-4.3,13.4-9.8c0-7.2-7.2-10.5-14.8-10.5h-7V89.5h6.6
			c5.7-0.1,13.1-2.3,13.1-8.5c0-4.4-3.6-7.7-10.8-7.7c-6,0-12.3,2.6-15.3,4.4l-3.5-12.4c4.4-2.8,13.2-5.5,22.6-5.5
			c15.7,0,24.3,8.2,24.3,18.3c0,7.8-4.4,13.9-13.4,17v0.2c8.8,1.6,15.9,8.2,15.9,17.8c0,13-11.4,22.4-30,22.4
			c-9.5,0-17.5-2.5-21.7-5.2L1094.9,117.6z"/>
	</g>
	<g>
		<path fill="#FDED00" d="M805.7,112.9v-10.4l9.5-8.6c16-14.3,23.8-22.5,24-31.1c0-6-3.6-10.7-12.1-10.7c-6.3,0-11.8,3.2-15.7,6.1
			L806.6,46c5.5-4.2,14.1-7.5,24-7.5c16.6,0,25.7,9.7,25.7,23c0,12.3-8.9,22.1-19.5,31.5l-6.8,5.6v0.2h27.6v14.1H805.7z"/>
	</g>
</g>
<g>
	<path fill-rule="evenodd" clip-rule="evenodd" d="M216.3,107.5c15.7,0,30.6-0.1,45.4,0c3.9,0,7.9,0.2,11.7,0.9
		c4.4,0.7,5.3,3.6,3.1,7.2c-1.4,2.4-3.2,4.7-5.2,6.7c-31.2,31.2-62.4,62.4-93.8,93.3c-8.9,8.8-15.6,9-24.3,0.4
		c-31.3-30.7-62.4-61.7-93.4-92.8c-3.3-3.3-5-8.2-7.5-12.4c4.9-1.1,9.8-3,14.7-3.2c15-0.4,30.1-0.2,45.9-0.2c0.1-2.7,0.3-5,0.4-7.3
		c0-21.8,0-43.7,0-65.5c0-20.7,9.8-30.6,30.4-30.6c14.6,0,29.3-0.1,43.9,0c18.1,0.1,28.5,10.3,28.6,28.4c0.2,22.1,0,44.1,0,66.2
		C216.3,101.3,216.3,103.8,216.3,107.5z"/>
	<path fill-rule="evenodd" clip-rule="evenodd" d="M10.7,211.1c16.9,0,33.4,0,50.8,0c0,7.4,0,14.5,0,21.7
		c0.1,19.2,10.4,29.4,29.7,29.4c49.1,0,98.3,0,147.4,0c19.5,0,29.7-10.2,29.7-30c0-6.8,0-13.5,0-20.8c17,0,33.6,0,50.3,0
		c6.8,47.8-11.6,89-61.1,100.7c-5.9,1.4-12.1,1.7-18.2,1.7c-49.6,0.1-99.1,0.2-148.7,0c-36.8-0.1-65.5-20.4-76.6-53.4
		C10.1,248.9,8.8,229.6,10.7,211.1z"/>
</g>
</svg>
