<?xml version="1.0" encoding="utf-8"?>
<!-- Generator: Adobe Illustrator 18.0.0, SVG Export Plug-In . SVG Version: 6.00 Build 0)  -->
<!DOCTYPE svg PUBLIC "-//W3C//DTD SVG 1.1//EN" "http://www.w3.org/Graphics/SVG/1.1/DTD/svg11.dtd">
<svg version="1.1" id="Capa_1" xmlns="http://www.w3.org/2000/svg" xmlns:xlink="http://www.w3.org/1999/xlink" x="0px" y="0px"
	 viewBox="1445.6 0 2807.4 2834.6" enable-background="new 1445.6 0 2807.4 2834.6" xml:space="preserve">
<path fill="#030104" d="M1486.9,386.4c0-175.2,142.4-317.6,317.6-317.6h2075c175.2,0,317.6,142.4,317.6,317.6v2075
	c0,175.2-142.4,317.6-317.6,317.6h-2075c-175.2,0-317.6-142.4-317.6-317.6L1486.9,386.4L1486.9,386.4z"/>
<linearGradient id="SVGID_1_" gradientUnits="userSpaceOnUse" x1="19.9001" y1="2566.1499" x2="519.9" y2="2566.1499" gradientTransform="matrix(5.2935 0 0 -5.2935 1413.3497 15005.1162)">
	<stop  offset="0" style="stop-color:#030104"/>
	<stop  offset="1.275212e-003" style="stop-color:#100F10"/>
	<stop  offset="1.375039e-002" style="stop-color:#343231"/>
	<stop  offset="2.577901e-002" style="stop-color:#4B4A4B"/>
	<stop  offset="3.705742e-002" style="stop-color:#5F5F61"/>
	<stop  offset="4.741487e-002" style="stop-color:#6F6E72"/>
	<stop  offset="5.652504e-002" style="stop-color:#79787C"/>
	<stop  offset="6.341460e-002" style="stop-color:#7C7B7F"/>
	<stop  offset="6.688868e-002" style="stop-color:#79787D"/>
	<stop  offset="9.552698e-002" style="stop-color:#616164"/>
	<stop  offset="0.1275" style="stop-color:#4D4C4D"/>
	<stop  offset="0.1625" style="stop-color:#3D3C3B"/>
	<stop  offset="0.2012" style="stop-color:#312F2E"/>
	<stop  offset="0.2448" style="stop-color:#252423"/>
	<stop  offset="0.2958" style="stop-color:#1B1A19"/>
	<stop  offset="0.3588" style="stop-color:#121111"/>
	<stop  offset="0.4472" style="stop-color:#070508"/>
	<stop  offset="0.6927" style="stop-color:#030104"/>
</linearGradient>
<path opacity="0.2" fill="url(#SVGID_1_)" enable-background="new    " d="M1518.7,408.1c0-171.5,138.7-310.2,310.2-310.2h2026.3
	c171.5,0,310.2,138.7,310.2,310.2v2026.3c0,171.5-138.7,310.2-310.2,310.2H1828.9c-171.5,0-310.2-138.7-310.2-310.2V408.1
	L1518.7,408.1z"/>
<g>
	<g>
		<path fill="#F1E32E" d="M2985.5,1755.8c45.5-46.6,52.4-70.9,59.8-114.9l61.4-347.3h-65.1l18.5-107.5h65.1l11.1-59.8
			c18.5-100.6,54-144.5,164.1-144.5c37.1,0,81,6.4,116.5,19.6l-27,103.8c-20.6-7.4-57.2-13.8-77.3-13.8c-29.6,0-39.2,7.4-43.9,30.7
			l-12.2,64.6H3374l-28.1,107.5h-108l-63.5,362.1c-11.1,63.5-33.3,108-104.3,178.4L2985.5,1755.8z"/>
		<path fill="#F1E32E" d="M3542.4,1641.5l-3.7-39.2c-31.8,24.3-79.4,48.7-144.5,48.7c-99,0-118.6-59.8-100.6-161.5l21.7-122.3
			c18.5-108,61.4-188.4,240.9-188.4c47.6,0,110.1,8.5,173.6,28.1l-75.7,434.6H3542.4z M3422.7,1503.3c-3.7,24.3,2.1,33.3,25.4,33.3
			c33.3,0,69.9-19.6,100-45l34.4-196.9c-17.5-3.7-37.1-4.8-51.3-4.8c-68.3,0-76.2,33.3-84.7,77.3L3422.7,1503.3z"/>
		<path fill="#F1E32E" d="M4017.7,1332.4c1.1-5.8,2.1-10.1,2.1-13.8c0-9.5-4.8-13.2-17.5-13.2c-24.3,0-82,24.3-117.5,42.9
			l-51.3,292.7h-131.3l77.3-443.1l115.9-19.6l-1.1,50.3c70.9-33.3,127-51.3,178.9-51.3c60.9,0,83.1,34.4,83.1,92.1
			c0,15.9-1.1,29.1-4.8,52.4l-56.1,319.2h-131.3L4017.7,1332.4z"/>
	</g>
	<g>
		<path fill="#FFFFFF" d="M2079.8,1520.8h108c-5.8,18-5.8,29.6,0.5,34.9c4.2,3.2,10.6,5.3,19.1,5.8c8.5,0.5,34.9,1.1,79.9,1.6
			c47.1,0,75.7-0.5,85.8-1.1c9.5-0.5,17.5-1.6,23.8-4.2c9-3.2,15.9-12.7,20.6-28.1c3.2-11.1,2.6-18.5-2.1-22.2
			c-4.8-3.7-15.9-5.8-33.9-5.8c-13.8,0-42.3-1.1-86.3-3.2c-45-2.1-74.1-3.2-87.9-3.7c-26.5-1.1-46.6-3.7-59.3-7.9
			c-13.2-4.2-22.2-11.1-27.5-20.6c-9-15.9-7.4-42.3,3.7-79.4c12.7-41.3,29.6-70.9,50.8-87.9c15.9-13.2,37.1-21.7,62.5-25.4
			c25.9-3.7,76.2-5.3,151.9-5.3c53.5,0,90.5,1.6,111.2,4.8c31.8,4.8,51.9,14.3,60.3,28.1c8.5,14.3,7.4,38.1-2.1,71.5
			c-1.1,3.2-2.6,9-5.3,17.5h-108c2.6-10.1,3.7-17.5,3.7-21.2c0-3.7-2.1-6.9-5.3-9c-3.7-2.6-11.6-4.8-23.8-5.3
			c-11.6-1.1-37.6-1.1-76.2-1.1c-47.1,0-76.2,1.6-87.3,4.2c-11.1,3.2-19.1,11.1-22.8,24.9c-3.7,12.7-1.1,20.6,8.5,23.8
			c7.9,2.1,46.6,4.8,115.9,6.9c58.2,1.6,97.4,3.7,116.5,6.4c19.1,2.6,33.3,6.9,43.4,13.8c11.1,7.9,16.9,19.1,18.5,33.3
			c1.6,14.3-1.6,34.4-9.5,60.9c-10.1,34.9-22.2,60.3-36.5,77.3c-10.6,12.2-23.3,21.7-37.6,27.5c-14.3,6.4-33.3,10.1-56.6,12.2
			c-24.9,2.1-70.4,3.2-136.6,3.2c-55.6,0-95.8-1.6-121.2-4.2c-25.4-2.6-43.9-7.9-55.1-15.4c-11.1-7.9-17.5-18.5-19.1-31.2
			c-1.1-13.2,2.1-32.8,10.6-59.3L2079.8,1520.8z"/>
		<path fill="#FFFFFF" d="M2903.5,1500.7h111.7c-4.2,18-6.9,29.6-8.5,34.9c-7.9,28.6-18,50.8-30.7,66.7c-14.3,18-36,30.2-64.6,36.5
			c-29.1,6.4-76.8,9.5-143.5,9.5c-69.9,0-119.6-1.6-148.7-4.2s-49.8-7.9-62.5-15.9c-11.6-6.9-18.5-16.4-21.7-28.1
			c-3.2-11.6-2.6-28.1,1.6-48.7c3.2-16.9,11.1-47.1,23.8-90.5c12.2-42.3,22.2-73.6,29.1-92.1c6.9-19.1,14.3-33.3,22.2-43.9
			c16.9-23.3,41.8-38.6,74.6-45.5c32.8-6.9,95.8-10.6,189.5-10.6c46.6,0,80.5,1.1,101.1,3.2c20.6,2.1,36.5,6.4,47.6,12.2
			c14.3,7.9,22.8,19.6,25.4,35.5c2.6,15.4-0.5,38.6-8.5,68.8c-0.5,1.6-2.1,7.9-5.3,18.5h-111.2c2.6-12.2,4.2-20.6,4.8-24.3
			c0-4.2-1.1-7.4-3.2-10.1c-3.2-3.7-13.2-6.4-30.2-8.5c-16.9-1.6-42.9-2.6-77.8-2.6c-34.9,0-58.8,0.5-72.5,2.1
			c-13.8,1.6-23.8,4.8-30.7,9c-7.9,5.3-15.4,14.3-21.7,27c-6.4,12.7-13.2,32.8-21.2,60.9s-12.7,47.6-13.2,58.8
			c-1.1,11.6,1.1,19.6,6.4,24.9c4.8,4.8,13.8,7.9,27,9.5s37.1,2.6,72,2.6c42.9,0,71.5-0.5,86.3-2.1c14.8-1.6,25.4-4.8,31.8-9.5
			C2889.2,1538.3,2896.6,1524,2903.5,1500.7"/>
		<path fill="#FFFFFF" d="M2117.9,1284.2c-1.1-13.8-5.8-24.9-15.9-32.3c-10.1-7.9-27.5-12.7-53.5-14.3c-11.1-1.1-47.6-1.1-108.5-1.6
			h-288l-133.4,406.5h292.7c68.3-0.5,109.6-1.1,124.4-2.1c22.2-1.6,39.7-4.8,53.5-10.1c13.8-5.3,25.4-12.7,35.5-23.8
			c15.4-15.9,28.1-40.2,38.1-73.6c13.2-42.9,12.2-70.9-3.7-84.2c-6.9-5.8-18.5-10.6-35.5-13.8c22.2-5.8,39.2-15.9,51.3-29.6
			c12.2-13.8,22.8-34.9,31.8-64.6C2115.3,1317.5,2119,1298.5,2117.9,1284.2 M1982.4,1363.1c-4.8,15.9-12.7,25.4-23.8,29.1
			c-8.5,3.2-31.2,4.2-69.3,4.2h-147.7l-26.5,81.5h148.7c48.2,0,74.1,1.1,77.8,2.1c11.1,3.2,14.3,13.2,9,30.2
			c-5.3,16.4-13.8,27-25.9,31.2c-5.3,1.6-11.1,2.6-18,3.2c-6.9,0.5-28.6,0.5-64.6,1.1h-148.7l0,0h-24.9l0,0l0,0l21.7-67.2l0,0
			l26.5-81.5l0,0l20.6-64.6h172.6c38.6,0,59.8,1.1,64.1,2.1C1985,1337.1,1987.7,1346.7,1982.4,1363.1"/>
		<polygon fill="#FFFFFF" points="1668.5,1545.2 1693.4,1545.2 1693.4,1545.2 		"/>
	</g>
</g>
</svg>
