<?xml version="1.0" encoding="utf-8"?>
<!-- Generator: Adobe Illustrator 18.0.0, SVG Export Plug-In . SVG Version: 6.00 Build 0)  -->
<!DOCTYPE svg PUBLIC "-//W3C//DTD SVG 1.1//EN" "http://www.w3.org/Graphics/SVG/1.1/DTD/svg11.dtd">
<svg version="1.1" id="Capa_1" xmlns="http://www.w3.org/2000/svg" xmlns:xlink="http://www.w3.org/1999/xlink" x="0px" y="0px"
	 viewBox="0 0 433.3 195" enable-background="new 0 0 433.3 195" xml:space="preserve">
<g>
	<g>
		<path fill-rule="evenodd" clip-rule="evenodd" fill="#FFFFFF" d="M386.7,73c12.3,14.5,19.4,32.8,20.1,53.4c0.1,1.7-3.1,4.6-5.1,5
			c-20.2,4.4-40.4,9.3-60.9,12.2c-51.8,7.4-104,9.4-156.4,9.1c7.2-1.5,14.4-3,21.5-4.5c7.5-1.5,15-2.9,22.4-4.5
			c39.3-8.8,78.3-18.5,114.8-36c7.3-3.5,14.7-7.3,20.9-12.3C372,88.9,378.8,81,386.7,73z"/>
	</g>
	<g>
		<path fill-rule="evenodd" clip-rule="evenodd" d="M104.3,95c0.5,5.8,0.6,11.3,1.5,16.6c0.3,1.8,2.4,3.3,3.7,4.9
			c1.1-1.8,2.9-3.6,3.1-5.5c0.4-3-0.3-6.1-0.7-10.4c4.7,3.4,8.4,6.3,12.4,8.8c1.2,0.8,3.3,0.2,5,0.2c-0.3-1.9,0.1-4.5-1-5.5
			c-4.4-3.9-9.3-7.4-15.2-12c9.4-2.7,17.6-5,26.4-7.6c0.6,5.6,0.8,10.6,1.7,15.4c0.4,1.8,2.4,3.3,3.7,4.9c1-1.9,2.5-3.8,2.7-5.8
			c0.4-3-0.2-6.1-0.4-10.7c4.4,3.3,7.6,6.1,11.2,8.2c1.6,0.9,4.1,0.2,6.3,0.3c-0.7-2-0.9-4.5-2.3-5.8c-3.6-3.3-7.8-6.1-12.7-9.8
			c8.6-3,16.3-5.6,25.4-8.7c0.3,5.4,0.2,9.8,0.9,14.2c0.4,2.1,2.4,4,3.6,5.9c1.1-1.9,2.8-3.8,3.3-5.9c0.6-2.7,0.1-5.6,0.1-9.1
			c4.8,1.8,9.2,3.7,13.7,4.8c1.7,0.4,3.8-1.1,5.8-1.8c-1.1-1.5-2-3.7-3.5-4.5c-4.9-2.3-10-4.1-16.3-6.5c8.7-3.9,16.3-7.3,25.1-11.3
			c0.3,5.2,0.3,9.5,1,13.6c0.3,1.7,2.2,3.1,3.3,4.6c1.3-1.6,3.2-3.1,3.6-4.9c0.6-2.9,0.2-6.1,0.2-10c4.7,1.7,9,3.6,13.5,4.7
			c1.7,0.4,3.9-1,5.9-1.5c-1.1-1.5-1.8-3.7-3.3-4.5c-4.6-2.3-9.5-4-15.1-6.3c7.2-4.9,13.7-9.6,20.7-13.6c1.7-1,5.4,0.4,7.5,1.7
			c17.3,10.5,35.6,18.1,55.9,20.3c22.9,2.5,43-3.5,59.9-19.1c4.3-3.9,7.6-4.3,12.6-2c27.2,12.4,42,34.7,48,62.8
			c2.8,13.1,2.3,26.9,3.5,40.4c0.5,5.6-2.2,8.2-7.1,8.4c-6.7,0.3-9.4,4.1-11,9.9c-1.4,5.3-3.9,10.3-5.3,15.5
			c-2,7.3-7.7,5.6-12.7,5.7c-4.6,0.1-9,0.5-10.5-5.8c-0.5-2.3-3.1-4.9-5.4-5.9c-4-1.7-6.1,1.6-7,4.9c-2,7.7-8,6.5-13.7,6.9
			c-5.7,0.4-9.2-1.6-10.7-7c-3.1-11.4-10.2-14.1-22-14c-42.5,0.5-84.7,3.5-126.8,9.7c-12.2,1.8-24.7,1.7-37.1,2
			c-4.5,0.1-7.4,1.2-10,5.1c-7.9,11.8-19.9,11.5-28.1-0.2c-1.7-2.4-3.7-5.2-6.3-6.2c-5.7-2.3-10.4-1.9-14,4.9
			c-5.2,9.8-19.4,9.1-25.1-0.6c-1.8-3.1-3.2-6.6-5.6-9.1c-1.9-2-5.1-3.2-7.9-3.5c-1-0.1-2.6,3.3-3.6,5.2c-1.1,2.1-1.1,5-2.7,6.5
			c-1.8,1.7-4.7,3.1-7.1,3.1c-2.1,0-4.8-1.7-6.2-3.4c-1.4-1.7-1.9-4.4-2.2-6.7c-1.2-8.2-4.6-13.9-13.6-15.5c-3.2-0.6-6.3-3.3-9-5.7
			c-9.2-8.1-9.7-20.6,0.2-27.7c6.7-4.9,15.1-7.9,23.2-10.1c20.2-5.6,40.5-10.4,60.9-15.4C100.4,95.4,102,95.3,104.3,95z"/>
		<path fill-rule="evenodd" clip-rule="evenodd" d="M198.2,56.5c21.5-16.2,42.9-32.4,64.5-48.3c1.2-0.9,5.4,0.1,6.2,1.4
			c5,8.9,9.9,18,13.9,27.3c0.9,2-1.3,5.9-3,8.3c-1.9,2.8-4.4,5.8-8.9,3.5c-8.2-4.3-16.8-8-24.7-12.8c-4.4-2.7-7.2-2.3-11.4,0.5
			c-11.6,7.6-23.6,14.6-35.5,21.8C198.9,57.7,198.6,57.1,198.2,56.5z"/>
	</g>
	<path fill-rule="evenodd" clip-rule="evenodd" fill="#FDED00" d="M386.7,73c-8,8-14.7,15.9-22.6,22.4c-6.2,5.1-13.6,8.8-20.9,12.3
		c-36.5,17.5-75.5,27.3-114.8,36c-7.4,1.7-14.9,3-22.4,4.5c-7.2,1.5-14.4,3-21.5,4.5c52.4,0.3,104.6-1.7,156.4-9.1
		c20.5-2.9,40.6-7.8,60.9-12.2c2-0.4,5.2-3.4,5.1-5C406.2,105.8,399.1,87.5,386.7,73z"/>
</g>
</svg>
