<?xml version="1.0" encoding="utf-8"?>
<!-- Generator: Adobe Illustrator 18.0.0, SVG Export Plug-In . SVG Version: 6.00 Build 0)  -->
<!DOCTYPE svg PUBLIC "-//W3C//DTD SVG 1.1//EN" "http://www.w3.org/Graphics/SVG/1.1/DTD/svg11.dtd">
<svg version="1.1" id="Capa_1" xmlns="http://www.w3.org/2000/svg" xmlns:xlink="http://www.w3.org/1999/xlink" x="0px" y="0px"
	 viewBox="0 0 428.6 315.5" enable-background="new 0 0 428.6 315.5" xml:space="preserve">
<g>
	<path d="M406.3,283.2H25.8c-8.5,0-15.5-7.9-15.5-17.6v23c0,9.7,6.9,17.6,15.5,17.6h380.5c8.1,0,14.6-6.6,14.6-14.6v-23
		C421,276.7,414.4,283.2,406.3,283.2z"/>
	<path d="M406.3,143.1H293.9V20.9c0-8.1-6.6-14.6-14.6-14.6H157.7c-8.1,0-14.6,6.6-14.6,14.6v78.2H25.8c-8.5,0-15.5,7.9-15.5,17.6
		v129c0,9.7,6.9,17.6,15.5,17.6h380.5c8.1,0,14.6-6.6,14.6-14.6v-90.8C421,149.7,414.4,143.1,406.3,143.1z"/>
	<g>
		<path fill-rule="evenodd" clip-rule="evenodd" fill="#FDED00" d="M259.4,41c0,4.3,0,8.6,0,12.8c-0.1,0.2-0.1,0.4-0.2,0.6
			C258,64.4,249.4,72,239.4,72c-0.6,0-0.8,0.2-1,0.7c-1.9,5.9-5.7,10.2-11.4,12.7c-0.9,0.4-1.8,0.7-2.7,1c0,5.2,0,10.4,0,15.7
			c0.3,0,0.6,0,0.8,0c3,0,6,0,9.1,0c2.5,0,4.5,1.5,4.9,3.9c0.2,1.3,0.1,2.6,0.1,4c0,0.7,0,1.4,0,2.1c-13.4,0-26.7,0-40,0
			c0-1.7,0-3.3,0-4.9c0-2.9,2.2-5.1,5.1-5.1c3,0,6,0,9.1,0c0.3,0,0.5,0,0.8,0c0-5.3,0-10.5,0-15.6c-1.3-0.5-2.6-1-3.8-1.6
			c-5.1-2.6-8.6-6.7-10.3-12.2c-0.2-0.5-0.3-0.7-0.9-0.7c-0.8,0-1.6,0-2.3-0.1c-8.2-1.2-13.7-5.7-16.6-13.4
			c-0.5-1.5-0.7-3.1-1.1-4.6c0-4.3,0-8.6,0-12.8c0-0.1,0.1-0.1,0.1-0.2c0.8-2.6,2.5-3.9,5.2-3.9c4.6,0,9.2,0,13.7,0
			c0.3,0,0.6,0,0.9,0c0.2-2.1,1-3.5,2.5-4.3c0.5-0.3,1.1-0.5,1.6-0.7c10.6,0,21.3,0,31.9,0c2.4,0.8,3.9,2.3,4.1,5c0.3,0,0.5,0,0.8,0
			c4.7,0,9.5,0,14.2,0c2.2,0,4,1.4,4.7,3.4C259.2,40.6,259.3,40.8,259.4,41z M199.2,62c0-5,0-10,0-15c-1.7,0-3.3,0-5,0
			c-1.7,0-3.3,0-5,0c0,1.7,0,3.3,0,5c0,1.5,0.3,2.9,0.9,4.2C191.8,59.7,195.7,62.2,199.2,62z M239.4,47c0,5,0,10,0,15
			c4.2,0.1,8.3-2.9,9.5-7c0.8-2.6,0.3-5.3,0.5-7.9C246,47,242.7,47,239.4,47z"/>
	</g>
	<g>
		<path fill="#FDED00" d="M340.3,221.8c3,1.6,10,4.5,17,4.5c8.9,0,13.4-4.3,13.4-9.8c0-7.2-7.2-10.5-14.8-10.5h-7v-12.3h6.6
			c5.7-0.1,13.1-2.3,13.1-8.5c0-4.4-3.6-7.7-10.8-7.7c-6,0-12.3,2.6-15.3,4.4l-3.5-12.4c4.4-2.8,13.2-5.5,22.6-5.5
			c15.7,0,24.3,8.2,24.3,18.3c0,7.8-4.4,13.9-13.4,17v0.2c8.8,1.6,15.9,8.2,15.9,17.8c0,13-11.4,22.4-30,22.4
			c-9.5,0-17.5-2.5-21.7-5.2L340.3,221.8z"/>
	</g>
	<g>
		<path fill="#FDED00" d="M51.2,217.2v-10.4l9.5-8.6c16-14.3,23.8-22.5,24-31.1c0-6-3.6-10.7-12.1-10.7c-6.3,0-11.8,3.2-15.7,6.1
			l-4.8-12.3c5.5-4.2,14.1-7.5,24-7.5c16.6,0,25.7,9.7,25.7,23c0,12.3-8.9,22.1-19.5,31.5l-6.8,5.6v0.2h27.6v14.1H51.2z"/>
	</g>
</g>
</svg>
