<?xml version="1.0" encoding="utf-8"?>
<!-- Generator: Adobe Illustrator 18.0.0, SVG Export Plug-In . SVG Version: 6.00 Build 0)  -->
<!DOCTYPE svg PUBLIC "-//W3C//DTD SVG 1.1//EN" "http://www.w3.org/Graphics/SVG/1.1/DTD/svg11.dtd">
<svg version="1.1" id="Capa_1" xmlns="http://www.w3.org/2000/svg" xmlns:xlink="http://www.w3.org/1999/xlink" x="0px" y="0px"
	 viewBox="0 0 216 208.3" enable-background="new 0 0 216 208.3" xml:space="preserve">
<g>
	<g>
		<path fill="#FFFFFF" d="M198.9,208.3L198.9,208.3h-0.1c-12.1-0.1-25.4-0.1-41.8-0.1c-8.2,0-16.4,0-24.6,0c-8.2,0-16.4,0-24.6,0
			h-91C6.8,208.2,0,201.5,0,191.5v-13.8c0-8.3,0-16.6,0-24.9c0-9.7,6.7-16.5,16.4-16.5c18.8,0,37.7,0,56.5,0c2,0,3.6,0.7,5,2.1
			c2.8,2.8,5.5,5.6,8.3,8.4c2.2,2.3,4.5,4.5,6.7,6.8c4.4,4.5,9.6,6.8,15.1,6.8c5.4,0,10.5-2.3,15-6.7c5.2-5.2,10.5-10.6,15.1-15.2
			c1.5-1.5,3.2-2.2,5.3-2.2c18.6,0,37.2,0,55.8,0c10,0,16.8,6.8,16.8,16.9c0,3.8,0,7.6,0,11.5c0,8.7-0.1,17.7,0.1,26.5
			c0.1,4.8-1.6,9.1-4.7,12.3C208.1,206.5,203.7,208.3,198.9,208.3z M157,200.2c16.5,0,29.8,0,41.9,0.1l0.1,4v-4
			c2.7,0,5.1-0.9,6.7-2.6c1.6-1.6,2.5-3.9,2.4-6.5c-0.1-8.9-0.1-17.9-0.1-26.6c0-3.8,0-7.6,0-11.4c0-5.6-3.2-8.9-8.8-8.9
			c-18.5,0-37.1,0-55.6,0c-4.6,4.6-9.8,10-15,15.1c-5.9,5.8-13.2,9-20.6,9c-7.5,0-14.9-3.3-20.8-9.2c-2.2-2.3-4.5-4.5-6.7-6.8
			c-2.7-2.7-5.4-5.4-8.1-8.1c-18.7,0-37.4,0-56,0c-5.2,0-8.4,3.3-8.4,8.5c0,8.3,0,16.6,0,24.9v13.8c0,5.6,3.2,8.8,8.8,8.8h91
			c8.2,0,16.4,0,24.6,0C140.6,200.2,148.8,200.2,157,200.2z M156,192.3c-3.2,0-6.2-1.3-8.5-3.6c-2.3-2.3-3.5-5.3-3.5-8.5
			c0-6.4,5.5-11.9,12-11.9h0c6.5,0,12,5.5,12,12C168,186.7,162.5,192.3,156,192.3z M156,172.2v4c-2.1,0-4,1.9-4,3.9
			c0,1.1,0.4,2.1,1.2,2.9c0.8,0.8,1.8,1.2,2.8,1.2c2.1,0,4-1.9,4-4.1c0-2-1.9-3.9-4-4L156,172.2z M188.1,192.3
			c-6.6,0-12.1-5.5-12.1-12.1c0-6.5,5.5-11.9,11.9-12h0.1c6.5,0,12,5.4,12,11.8c0,3.2-1.2,6.3-3.5,8.6
			C194.2,191,191.2,192.2,188.1,192.3z M188,172.2l0,4c-2.1,0-4,1.9-4,4c0,2.2,1.9,4.1,4,4.1c1,0,2-0.4,2.8-1.2
			c0.8-0.8,1.2-1.8,1.2-2.9c0-2-1.9-3.9-4-3.9V172.2z"/>
	</g>
	<path fill="#FFFFFF" d="M175.6,68.9c-3-3.1-7.1-4.8-11.7-4.8c-8,0-15.9,0-23.9,0c0-12.1,0-24.3,0-36.1l0-10.9c0-10.2-6.8-17-17-17
		c-4.4,0-8.9,0-13.3,0L93,0C82.8,0,76,6.8,76,17c0,6.3,0,12.7,0,19l0,13.6c0,4.7,0,9.6,0,14.4c-7.3,0-14.6,0-21.9,0l-1.9,0
		c-6.9,0-12.4,3.6-14.9,9.9c-2.6,6.3-1.3,12.5,3.7,17.4c18.2,18.3,36.5,36.5,54.7,54.8c0.7,0.7,1.4,1.3,2,1.9
		c2.9,2.5,6.6,3.9,10.4,3.9c3.8,0,7.4-1.4,10.3-3.9c1.3-1.1,2.4-2.2,3.5-3.3l20.3-20.3c11-11,22-22,33-33c1.2-1.2,4.8-4.8,5-10.6
		C180.2,76.2,178.6,72,175.6,68.9z M169.4,85.8c-17.6,17.6-35.1,35.1-52.6,52.7c-1.2,1.2-2.4,2.5-3.7,3.6c-3,2.6-7.2,2.6-10.2,0
		c-0.5-0.5-1.1-1-1.6-1.5C83.1,122.3,64.8,104,46.6,85.7c-2.7-2.7-3.3-5.4-1.9-8.8c1.3-3.3,3.8-4.9,7.5-4.9c10.1,0,20.1,0,30.2,0
		c1.4,0,1.7-0.4,1.7-1.8c-0.1-9.1,0-18.1,0-27.2c0-8.7,0-17.4,0-26.2c0-5.7,3.3-8.9,9-9c10,0,20,0,30,0c5.7,0,9,3.3,9,9
		c0,17.7,0,35.4,0,53.2c0,1.6,0.5,1.9,1.9,1.9c10-0.1,20-0.1,30,0c4.9,0,8.3,3.7,8.2,8.6C172,82.7,170.9,84.3,169.4,85.8z"/>
</g>
</svg>
